<?xml version="1.0" encoding="utf-8"?>
<!-- Generator: Adobe Illustrator 21.0.2, SVG Export Plug-In . SVG Version: 6.00 Build 0)  -->
<svg version="1.1" id="Layer_1" xmlns="http://www.w3.org/2000/svg" xmlns:xlink="http://www.w3.org/1999/xlink" x="0px" y="0px"
	 viewBox="0 0 230 230" style="enable-background:new 0 0 230 230;" xml:space="preserve">
<style type="text/css">
	.st0{fill:#FFFFFF;}
</style>
<g>
	<path class="st0" d="M222.9,82.4H116.8l26.2-19l-1.2-11.6l-17.1,1.7L84.9,82.4H68.9V94l-11.2,8.1L42.4,90.8
		c1.7-8.4-2.4-17-10.2-20.8c-2.6-1.3-5.4-2-8.4-2c-7.3,0-13.8,4.1-17,10.6C2.2,88,6,99.4,15.4,104c2.6,1.3,5.4,2,8.4,2
		c2.2,0,4.3-0.4,6.3-1.1l11.7,8.8l-11.9,8.6c-2.1-0.8-4.3-1.2-6.5-1.2c-2.8,0-5.6,0.6-8.1,1.8c-9.4,4.5-13.5,15.8-9,25.3
		c3.1,6.6,9.9,10.8,17.1,10.8c2.8,0,5.6-0.6,8.1-1.8c7.9-3.7,12.1-12.3,10.5-20.7l15.4-11.2l11.4,8.5v23.7h31.7l22.8,17l0.4,0.3
		l17.1,2l1.3-11.6l-10.4-7.7h91V82.4z M218.8,153.4h-92.4l-53.1-39.5l-0.4-0.3v-2v-2.5v-13v-2.5v-2.5v-4.6h6.3h3.5h3.5h17.9h3.5h3.5
		h107.6V153.4z M137.4,172.3l-11.9-1.4l-18-13.4l-2.7-2l-2.7-2l-29-21.6l-2-1.5l-2-1.5l-7.9-5.9l-0.2-0.2l8.1-6.8l0.2-0.1l0.8,0.6
		l1,0.8l2,1.5l46.6,34.7l2.7,2l2.7,2l12.9,9.6L137.4,172.3z M73,153.4v-16.5l22.1,16.5H73z M68.9,99.1v11.4l-7.8-5.8L68.9,99.1z
		 M24,92.9c-3.4,0-6.2-2.8-6.2-6.2c0-3.4,2.8-6.2,6.2-6.2c3.4,0,6.2,2.8,6.2,6.2C30.2,90.1,27.4,92.9,24,92.9z M23.6,134.3
		c3.4,0,6.2,2.7,6.2,6.2c0,3.4-2.7,6.2-6.2,6.2c-3.4,0-6.2-2.7-6.2-6.2C17.4,137.1,20.1,134.3,23.6,134.3z M138.2,56.3l0.5,5.2
		l-28.9,20.9H91.9l34.3-24.9L138.2,56.3z"/>
	<path class="st0" d="M145.9,143.3c12.9,0,23.3-10.4,23.3-23.3c0-12.9-10.4-23.3-23.3-23.3c-12.9,0-23.3,10.4-23.3,23.3
		C122.6,132.8,133,143.3,145.9,143.3z M136.3,107.5c1.6-2.2,4.2-3.6,7-4v-4.3h4.5v4.5c2.3,0.5,4.5,1.4,6.5,2.7l-2.5,3.8
		c-1.2-0.8-2.6-1.4-4-1.8v9.4c0.6,0.2,1.2,0.3,1.8,0.5c3.2,0.9,5.8,2.8,7,5.2c1,1.9,1.1,3.9,0.3,6c-1.3,3.5-4.5,5.5-9.1,5.7v5h-4.5
		v-5.3c-0.2,0-0.4-0.1-0.6-0.1c-2.7-0.5-5.3-1.5-7.6-3l2.5-3.8c1.7,1.1,3.7,1.9,5.6,2.3v-9c-3-0.9-7.1-2.1-8.3-6.7
		C134.4,112.1,134.8,109.6,136.3,107.5z"/>
	<path class="st0" d="M143.4,116.6v-8.4c-1.4,0.3-2.7,1.1-3.4,2.1c-0.7,0.9-0.9,2-0.6,3.3C139.9,115.1,141.2,115.9,143.4,116.6z"/>
	<path class="st0" d="M152.8,128c0.3-0.9,0.3-1.6-0.1-2.3c-0.6-1.2-2.3-2.4-4.2-2.9c-0.2-0.1-0.4-0.1-0.6-0.2v8.1
		C150,130.5,152.1,129.9,152.8,128z"/>
</g>
</svg>
