<?xml version="1.0" encoding="utf-8"?>
<!-- Generator: Adobe Illustrator 21.0.2, SVG Export Plug-In . SVG Version: 6.00 Build 0)  -->
<svg version="1.1" id="social-twitter" xmlns="http://www.w3.org/2000/svg" xmlns:xlink="http://www.w3.org/1999/xlink" x="0px"
	 y="0px" viewBox="0 0 12 12" style="enable-background:new 0 0 12 12;" xml:space="preserve">
<style type="text/css">
	.st0{fill:#FFFFFF;}
</style>
<path class="st0" d="M0.3,9.6c0.2,0,0.4,0,0.6,0c1.1,0,2-0.3,2.9-1c-0.5,0-1-0.2-1.4-0.5C2,7.8,1.7,7.5,1.6,7C1.8,7,1.9,7,2,7
	c0.2,0,0.4,0,0.6-0.1c-0.5-0.1-1-0.4-1.3-0.8S0.8,5.2,0.8,4.7l0,0C1.1,4.9,1.5,5,1.9,5C1.5,4.7,1.3,4.4,1.1,4.1
	C0.9,3.8,0.8,3.4,0.8,3s0.1-0.8,0.3-1.2c0.6,0.7,1.3,1.3,2.1,1.7S5,4.2,5.9,4.2c0-0.2-0.1-0.4-0.1-0.5c0-0.6,0.2-1.2,0.7-1.6
	s1-0.7,1.6-0.7c0.7,0,1.2,0.2,1.7,0.7c0.5-0.1,1-0.3,1.5-0.6c-0.2,0.6-0.5,1-1,1.3c0.4,0,0.9-0.2,1.3-0.4c-0.2,0.6-0.6,1-1.1,1.3
	c0,0.1,0,0.2,0,0.3c0,0.6-0.1,1.2-0.3,1.9C10,6.5,9.7,7.1,9.4,7.7C9,8.2,8.6,8.7,8.1,9.2c-0.5,0.4-1.2,0.8-1.9,1
	c-0.7,0.3-1.5,0.4-2.3,0.4C2.6,10.6,1.4,10.3,0.3,9.6z"/>
</svg>
