<?xml version="1.0" encoding="utf-8"?>
<!-- Generator: Adobe Illustrator 19.0.1, SVG Export Plug-In . SVG Version: 6.00 Build 0)  -->
<svg version="1.1" id="Layer_1" xmlns="http://www.w3.org/2000/svg" xmlns:xlink="http://www.w3.org/1999/xlink" x="0px" y="0px"
	 viewBox="0 0 100 30" style="enable-background:new 0 0 100 30;" xml:space="preserve">
<style type="text/css">
	.st0{fill:#FFFFFF;}
</style>
<path class="st0" d="M15,0C6.7,0,0,6.7,0,15s6.7,15,15,15s15-6.7,15-15S23.3,0,15,0z M21.9,21.6c-0.3,0.4-0.8,0.6-1.3,0.3
	c-3.5-2.2-8-2.6-13.2-1.4c-0.5,0.1-1-0.2-1.1-0.7s0.2-1,0.7-1.1c5.7-1.3,10.6-0.7,14.6,1.7C22,20.6,22.2,21.2,21.9,21.6z M23.8,17.6
	c-0.3,0.6-1.1,0.7-1.6,0.4c-4-2.5-10.2-3.2-14.9-1.7c-0.6,0.2-1.3-0.2-1.5-0.8C5.6,14.9,6,14.2,6.6,14c5.4-1.7,12.2-0.9,16.9,2
	C23.9,16.3,24.1,17,23.8,17.6z M23.9,13.3c-4.8-2.9-12.8-3.1-17.4-1.7c-0.7,0.2-1.5-0.2-1.7-0.9S5,9.2,5.7,8.9
	c5.3-1.6,14.1-1.3,19.7,2c0.7,0.4,0.9,1.3,0.5,1.9C25.4,13.5,24.6,13.7,23.9,13.3z"/>
<path class="st0" d="M40.8,13.8c-2.6-0.6-3.1-1.1-3.1-2s0.8-1.4,2-1.4s2.3,0.4,3.5,1.3h0.1c0,0,0.1,0,0.1-0.1l1.3-1.8
	c0.1-0.1,0-0.2,0-0.2c-1.4-1.2-3.1-1.7-5-1.7C36.9,7.9,35,9.6,35,12c0,2.6,1.7,3.5,4.6,4.2c2.5,0.6,2.9,1,2.9,1.9s-0.8,1.5-2.2,1.5
	c-1.5,0-2.7-0.5-4.1-1.7h-0.1c0,0-0.1,0-0.1,0.1l-1.4,1.7c-0.1,0.1-0.1,0.2,0,0.2c1.6,1.4,3.6,2.2,5.7,2.2c3,0,5-1.6,5-4.2
	C45.3,15.8,44,14.6,40.8,13.8z M52.1,11.3c-1.3,0-2.4,0.5-3.3,1.6v-1.2c0-0.1-0.1-0.2-0.2-0.2h-2.3c-0.1,0-0.2,0.1-0.2,0.2v13.2
	c0,0.1,0.1,0.2,0.2,0.2h2.3c0.1,0,0.2-0.1,0.2-0.2v-4.2c0.9,1,2,1.5,3.3,1.5c2.4,0,4.9-1.9,4.9-5.4C57,13.2,54.5,11.3,52.1,11.3z
	 M54.3,16.7c0,1.8-1.1,3.1-2.7,3.1c-1.6,0-2.8-1.3-2.8-3.1s1.2-3.1,2.8-3.1S54.3,14.9,54.3,16.7z M63.3,11.3c-3.1,0-5.6,2.4-5.6,5.5
	c0,3,2.4,5.4,5.5,5.4s5.6-2.4,5.6-5.5C68.8,13.7,66.4,11.3,63.3,11.3z M63.3,19.8c-1.7,0-2.9-1.3-2.9-3.1s1.2-3.1,2.9-3.1
	s2.9,1.3,2.9,3.1C66.2,18.6,65,19.8,63.3,19.8z M75.5,11.5h-2.6V8.9c0-0.1-0.1-0.2-0.2-0.2h-2.3c-0.1,0-0.2,0.1-0.2,0.2v2.6h-1.1
	c-0.1,0-0.2,0.1-0.2,0.2v2c0,0.1,0.1,0.2,0.2,0.2h1.1V19c0,2.1,1,3.1,3.1,3.1c0.8,0,1.5-0.2,2.2-0.5c0.1,0,0.1-0.1,0.1-0.1v-1.9
	c0-0.1,0-0.1-0.1-0.1s-0.1,0-0.2,0c-0.4,0.2-0.9,0.3-1.4,0.3c-0.7,0-1.1-0.3-1.1-1.1v-4.8h2.6c0.1,0,0.2-0.1,0.2-0.2v-2
	C75.7,11.6,75.6,11.5,75.5,11.5z M84.4,11.5v-0.3c0-0.9,0.4-1.4,1.2-1.4c0.5,0,0.9,0.1,1.3,0.2c0.1,0,0.1,0,0.2,0l0.1-0.1V8
	c0-0.1,0-0.1-0.1-0.2c-0.5-0.1-1-0.3-1.9-0.3c-2.1,0-3.3,1.2-3.3,3.5v0.5h-1.1c-0.1,0-0.2,0.1-0.2,0.2v2c0,0.1,0.1,0.2,0.2,0.2h1.1
	v8c0,0.1,0.1,0.2,0.2,0.2h2.3c0.1,0,0.2-0.1,0.2-0.2v-8h2.2l3.3,8c-0.4,0.8-0.7,1-1.3,1c-0.4,0-0.8-0.1-1.3-0.4h-0.1
	c0,0-0.1,0-0.1,0.1l-0.8,1.7c0,0.1,0,0.2,0.1,0.2c0.8,0.4,1.6,0.6,2.5,0.6c1.7,0,2.7-0.8,3.5-2.9l4-10.4c0-0.1,0-0.1,0-0.2l-0.1-0.1
	h-2.4c-0.1,0-0.1,0-0.2,0.1l-2.5,7.1l-2.7-7.1c0-0.1-0.1-0.1-0.2-0.1C88.5,11.5,84.4,11.5,84.4,11.5z M79.3,11.5H77
	c-0.1,0-0.2,0.1-0.2,0.2v10.1c0,0.1,0.1,0.2,0.2,0.2h2.3c0.1,0,0.2-0.1,0.2-0.2V11.7C79.4,11.6,79.3,11.5,79.3,11.5z"/>
<circle class="st0" cx="78.1" cy="8.6" r="1.7"/>
<path class="st0" d="M98.4,14.8c-0.9,0-1.6-0.7-1.6-1.6c0-0.9,0.7-1.6,1.6-1.6c0.9,0,1.6,0.7,1.6,1.6C100.1,14,99.3,14.8,98.4,14.8z
	 M98.4,11.6c-0.8,0-1.5,0.7-1.5,1.5s0.6,1.5,1.5,1.5c0.8,0,1.5-0.7,1.5-1.5S99.3,11.6,98.4,11.6z M98.8,13.3l0.5,0.6h-0.4l-0.4-0.6
	h-0.4v0.6h-0.3v-1.7h0.8c0.4,0,0.7,0.2,0.7,0.5C99.2,13,99,13.2,98.8,13.3z M98.5,12.5h-0.4V13h0.4c0.2,0,0.3-0.1,0.3-0.3
	C98.9,12.6,98.7,12.5,98.5,12.5z"/>
</svg>
