<svg xmlns="http://www.w3.org/2000/svg" version="1.1" x="0px" y="0px" viewBox="0 0 252.5 30" xml:space="preserve">
<path style="fill:#FFFFFF;" d="M82.8 17.1c0 3.8-2.1 5.8-6 5.8 -3.9 0-6-2.1-6-5.8v-6.7h4.3V17c0 1.8 0.5 2.6 1.7 2.6 1.2 0 1.7-0.7 1.7-2.8v-6.3h4.3V17.1z"/><polygon style="fill:#FFFFFF;" points="20.5 13.6 20.5 22.7 16.1 22.7 16.1 13.6 12.5 13.6 12.5 10.5 24.2 10.5 24.2 13.6 "/><path style="fill:#FFFFFF;" d="M31.6 13.3l-1.1 4.2h2.2L31.6 13.3zM34.4 22.7l-0.7-2.2h-4.1l-0.8 2.2h-4.4l4.4-12.2h5.6l4.4 12.2H34.4zM96.9 21.7l-1.3-3.2c-0.8 0.6-1.6 1.1-2.8 1.1 -1.7 0-2.9-1.4-2.9-3.1 0-1.7 1-3.2 2.8-3.2 1.1 0 2.1 0.6 2.9 1.2l1.3-3.1c-1.5-0.7-2.9-1.2-4.9-1.2 -3.7 0-6.5 2.5-6.5 6.3 0 3.9 2.7 6.4 6.6 6.4C94.2 22.9 95.7 22.4 96.9 21.7z"/><polygon style="fill:#FFFFFF;" points="106.7 22.7 104 18.2 104 22.7 99.7 22.7 99.7 10.5 104 10.5 104 14.9 106.6 10.5 111.3 10.5 107.3 16.5 111.8 22.7 "/><path style="fill:#FFFFFF;" d="M5.1 22.9c2.8 0 5.6-1 5.6-4.1 0-2.8-2.4-3.6-4.3-4 -1.4-0.3-2.1-0.4-2.1-1 0-0.7 0.9-0.8 1.5-0.8 1.3 0 2.4 0.5 3.5 1.1l1.1-2.8c-1.5-0.6-3.3-1.1-5-1.1 -2.9 0-5.1 1.4-5.1 4.2 0 2.3 1.7 3.2 3.6 3.6 1.3 0.3 2.2 0.4 2.2 1.1 0 0.7-0.7 0.8-1.3 0.8 -1.4 0-2.7-0.6-3.5-1.3L0 21.3C1.5 22.3 3.3 22.9 5.1 22.9zM118.3 22.9c2.8 0 5.6-1 5.6-4.1 0-2.8-2.4-3.6-4.3-4 -1.4-0.3-2.1-0.4-2.1-1 0-0.7 0.9-0.8 1.5-0.8 1.3 0 2.4 0.5 3.5 1.1l1.1-2.8c-1.5-0.6-3.3-1.1-5-1.1 -2.9 0-5.1 1.4-5.1 4.2 0 2.3 1.7 3.2 3.6 3.6 1.3 0.3 2.2 0.4 2.2 1.1 0 0.7-0.6 0.8-1.3 0.8 -1.4 0-2.7-0.6-3.5-1.3l-1.4 2.7C114.7 22.3 116.5 22.9 118.3 22.9z"/><path style="fill:#FFFFFF;" d="M50.3 18.1c1.5-0.5 2.3-2 2.3-3.5 0-2.9-2-4.2-4.8-4.2h-6.6v12.2h4.2v-3.6h1.1l2.2 3.6h4.6L50.3 18.1zM48.4 14.7c0 0.8-0.5 1.3-1.3 1.3h-1.5v-2.5H47C47.8 13.4 48.4 13.8 48.4 14.7L48.4 14.7z"/><path style="fill:#FFFFFF;" d="M65.2 16.4c1.6-0.3 2.4-1.2 2.4-2.7 0-2.1-1.6-3.2-4.3-3.2h-7v12.2H63c3.2 0 4.8-1.1 4.8-3.4C67.8 17.6 66.8 16.6 65.2 16.4zM60.5 13.1H62c0.8 0 1.3 0.3 1.3 1.1v0c0 0.7-0.5 1.1-1.4 1.1h-1.5V13.1zM63.4 18.9c0 0.7-0.5 1.1-1.4 1.1h-1.5v-2.3H62C62.9 17.7 63.4 18.1 63.4 18.9L63.4 18.9z"/><path style="fill:#FFFFFF;" d="M127.3 10.2c1 0 1.9 0.8 1.9 1.9 0 1.1-0.8 1.9-1.9 1.9 -1 0-1.9-0.8-1.9-1.9C125.4 11 126.3 10.2 127.3 10.2zM127.3 13.7c0.8 0 1.5-0.7 1.5-1.6 0-0.9-0.7-1.6-1.5-1.6 -0.9 0-1.5 0.7-1.5 1.6C125.8 13 126.4 13.7 127.3 13.7zM126.6 11h0.8c0.5 0 0.8 0.2 0.8 0.6 0 0.4-0.2 0.6-0.6 0.6l0.6 1h-0.4l-0.6-0.9h-0.4v0.9h-0.3V11zM126.9 12h0.3c0.3 0 0.6 0 0.6-0.4 0-0.3-0.3-0.3-0.5-0.3h-0.4V12z"/><path style="fill:#FFF;" d="M167.4 0c-8.3 0-15 6.7-15 15 0 8.3 6.7 15 15 15 8.3 0 15-6.7 15-15C182.4 6.7 175.7 0 167.4 0zM174.3 21.6c-0.3 0.4-0.8 0.6-1.3 0.3 -3.5-2.2-8-2.6-13.2-1.4 -0.5 0.1-1-0.2-1.1-0.7 -0.1-0.5 0.2-1 0.7-1.1 5.7-1.3 10.6-0.7 14.6 1.7C174.4 20.6 174.6 21.2 174.3 21.6zM176.2 17.6c-0.3 0.6-1.1 0.7-1.6 0.4 -4-2.5-10.2-3.2-14.9-1.7 -0.6 0.2-1.3-0.2-1.5-0.8 -0.2-0.6 0.2-1.3 0.8-1.5 5.4-1.7 12.2-0.9 16.9 2C176.3 16.3 176.5 17 176.2 17.6zM176.3 13.3c-4.8-2.9-12.8-3.1-17.4-1.7 -0.7 0.2-1.5-0.2-1.7-0.9 -0.2-0.7 0.2-1.5 0.9-1.8 5.3-1.6 14.1-1.3 19.7 2 0.7 0.4 0.9 1.3 0.5 1.9C177.8 13.5 177 13.7 176.3 13.3z"/><path style="fill:#FFF;" d="M193.2 13.8c-2.6-0.6-3.1-1.1-3.1-2 0-0.9 0.8-1.4 2-1.4 1.2 0 2.3 0.4 3.5 1.3 0 0 0.1 0 0.1 0 0 0 0.1 0 0.1-0.1l1.3-1.8c0.1-0.1 0-0.2 0-0.2 -1.4-1.2-3.1-1.7-5-1.7 -2.8 0-4.7 1.7-4.7 4.1 0 2.6 1.7 3.5 4.6 4.2 2.5 0.6 2.9 1 2.9 1.9 0 0.9-0.8 1.5-2.2 1.5 -1.5 0-2.7-0.5-4.1-1.7 0 0-0.1 0-0.1 0 0 0-0.1 0-0.1 0.1l-1.4 1.7c-0.1 0.1-0.1 0.2 0 0.2 1.6 1.4 3.6 2.2 5.7 2.2 3 0 5-1.6 5-4.2C197.7 15.8 196.4 14.6 193.2 13.8zM204.5 11.3c-1.3 0-2.4 0.5-3.3 1.6v-1.2c0-0.1-0.1-0.2-0.2-0.2h-2.3c-0.1 0-0.2 0.1-0.2 0.2v13.2c0 0.1 0.1 0.2 0.2 0.2h2.3c0.1 0 0.2-0.1 0.2-0.2v-4.2c0.9 1 2 1.5 3.3 1.5 2.4 0 4.9-1.9 4.9-5.4C209.4 13.2 206.9 11.3 204.5 11.3zM206.7 16.7c0 1.8-1.1 3.1-2.7 3.1 -1.6 0-2.8-1.3-2.8-3.1 0-1.8 1.2-3.1 2.8-3.1C205.6 13.6 206.7 14.9 206.7 16.7zM215.7 11.3c-3.1 0-5.6 2.4-5.6 5.5 0 3 2.4 5.4 5.5 5.4 3.1 0 5.6-2.4 5.6-5.5C221.2 13.7 218.8 11.3 215.7 11.3zM215.7 19.8c-1.7 0-2.9-1.3-2.9-3.1 0-1.8 1.2-3.1 2.9-3.1 1.7 0 2.9 1.3 2.9 3.1C218.6 18.6 217.4 19.8 215.7 19.8zM227.9 11.5h-2.6V8.9c0-0.1-0.1-0.2-0.2-0.2h-2.3c-0.1 0-0.2 0.1-0.2 0.2v2.6h-1.1c-0.1 0-0.2 0.1-0.2 0.2v2c0 0.1 0.1 0.2 0.2 0.2h1.1V19c0 2.1 1 3.1 3.1 3.1 0.8 0 1.5-0.2 2.2-0.5 0.1 0 0.1-0.1 0.1-0.1v-1.9c0-0.1 0-0.1-0.1-0.1 -0.1 0-0.1 0-0.2 0 -0.4 0.2-0.9 0.3-1.4 0.3 -0.7 0-1.1-0.3-1.1-1.1v-4.8h2.6c0.1 0 0.2-0.1 0.2-0.2v-2C228.1 11.6 228 11.5 227.9 11.5zM236.8 11.5v-0.3c0-0.9 0.4-1.4 1.2-1.4 0.5 0 0.9 0.1 1.3 0.2 0.1 0 0.1 0 0.2 0 0 0 0.1-0.1 0.1-0.1V8c0-0.1 0-0.1-0.1-0.2 -0.5-0.1-1-0.3-1.9-0.3 -2.1 0-3.3 1.2-3.3 3.5v0.5h-1.1c-0.1 0-0.2 0.1-0.2 0.2v2c0 0.1 0.1 0.2 0.2 0.2h1.1v8c0 0.1 0.1 0.2 0.2 0.2h2.3c0.1 0 0.2-0.1 0.2-0.2v-8h2.2l3.3 8c-0.4 0.8-0.7 1-1.3 1 -0.4 0-0.8-0.1-1.3-0.4 0 0-0.1 0-0.1 0 0 0-0.1 0-0.1 0.1l-0.8 1.7c0 0.1 0 0.2 0.1 0.2 0.8 0.4 1.6 0.6 2.5 0.6 1.7 0 2.7-0.8 3.5-2.9l4-10.4c0-0.1 0-0.1 0-0.2 0 0-0.1-0.1-0.1-0.1h-2.4c-0.1 0-0.1 0-0.2 0.1l-2.5 7.1 -2.7-7.1c0-0.1-0.1-0.1-0.2-0.1H236.8zM231.7 11.5h-2.3c-0.1 0-0.2 0.1-0.2 0.2v10.1c0 0.1 0.1 0.2 0.2 0.2h2.3c0.1 0 0.2-0.1 0.2-0.2V11.7C231.8 11.6 231.7 11.5 231.7 11.5z"/><circle style="fill:#FFF;" cx="230.5" cy="8.6" r="1.7"/><path style="fill:#FFF;" d="M250.8 14.8c-0.9 0-1.6-0.7-1.6-1.6 0-0.9 0.7-1.6 1.6-1.6 0.9 0 1.6 0.7 1.6 1.6C252.5 14 251.7 14.8 250.8 14.8zM250.8 11.6c-0.8 0-1.5 0.7-1.5 1.5 0 0.8 0.6 1.5 1.5 1.5 0.8 0 1.5-0.7 1.5-1.5C252.3 12.3 251.7 11.6 250.8 11.6zM251.2 13.3l0.5 0.6h-0.4l-0.4-0.6h-0.4v0.6h-0.3v-1.7h0.8c0.4 0 0.7 0.2 0.7 0.5C251.6 13 251.4 13.2 251.2 13.3zM250.9 12.5h-0.4v0.5h0.4c0.2 0 0.3-0.1 0.3-0.3C251.3 12.6 251.1 12.5 250.9 12.5z"/>
</svg>