<?xml version="1.0" encoding="utf-8"?>
<!-- Generator: Adobe Illustrator 19.0.1, SVG Export Plug-In . SVG Version: 6.00 Build 0)  -->
<svg version="1.1" id="Layer_1" xmlns="http://www.w3.org/2000/svg" xmlns:xlink="http://www.w3.org/1999/xlink" x="0px" y="0px"
	 viewBox="0 0 130 30" style="enable-background:new 0 0 130 30;" xml:space="preserve">
<style type="text/css">
	.st0{fill:#FFFFFF;}
</style>
<path class="st0" d="M82.8,15.4c0,3.8-2.1,5.8-6,5.8s-6-2.1-6-5.8V8.7h4.3v6.6c0,1.8,0.5,2.6,1.7,2.6s1.7-0.7,1.7-2.8V8.8h4.3V15.4z
	"/>
<polygon class="st0" points="20.5,11.9 20.5,21 16.1,21 16.1,11.9 12.5,11.9 12.5,8.8 24.2,8.8 24.2,11.9 "/>
<path class="st0" d="M31.6,11.6l-1.1,4.2h2.2L31.6,11.6z M34.4,21l-0.7-2.2h-4.1L28.8,21h-4.4l4.4-12.2h5.6L38.8,21H34.4z M96.9,20
	l-1.3-3.2c-0.8,0.6-1.6,1.1-2.8,1.1c-1.7,0-2.9-1.4-2.9-3.1s1-3.2,2.8-3.2c1.1,0,2.1,0.6,2.9,1.2l1.3-3.1C95.4,9,94,8.5,92,8.5
	c-3.7,0-6.5,2.5-6.5,6.3c0,3.9,2.7,6.4,6.6,6.4C94.2,21.2,95.7,20.7,96.9,20z"/>
<polygon class="st0" points="106.7,21 104,16.5 104,21 99.7,21 99.7,8.8 104,8.8 104,13.2 106.6,8.8 111.3,8.8 107.3,14.8 111.8,21 
	"/>
<path class="st0" d="M5.1,21.2c2.8,0,5.6-1,5.6-4.1c0-2.8-2.4-3.6-4.3-4c-1.4-0.3-2.1-0.4-2.1-1c0-0.7,0.9-0.8,1.5-0.8
	c1.3,0,2.4,0.5,3.5,1.1l1.1-2.8C8.9,9,7.1,8.5,5.4,8.5c-2.9,0-5.1,1.4-5.1,4.2c0,2.3,1.7,3.2,3.6,3.6c1.3,0.3,2.2,0.4,2.2,1.1
	s-0.7,0.8-1.3,0.8c-1.4,0-2.7-0.6-3.5-1.3L0,19.6C1.5,20.6,3.3,21.2,5.1,21.2z M118.3,21.2c2.8,0,5.6-1,5.6-4.1c0-2.8-2.4-3.6-4.3-4
	c-1.4-0.3-2.1-0.4-2.1-1c0-0.7,0.9-0.8,1.5-0.8c1.3,0,2.4,0.5,3.5,1.1l1.1-2.8c-1.5-0.6-3.3-1.1-5-1.1c-2.9,0-5.1,1.4-5.1,4.2
	c0,2.3,1.7,3.2,3.6,3.6c1.3,0.3,2.2,0.4,2.2,1.1s-0.6,0.8-1.3,0.8c-1.4,0-2.7-0.6-3.5-1.3l-1.4,2.7
	C114.7,20.6,116.5,21.2,118.3,21.2z"/>
<path class="st0" d="M50.3,16.4c1.5-0.5,2.3-2,2.3-3.5c0-2.9-2-4.2-4.8-4.2h-6.6v12.2h4.2v-3.6h1.1l2.2,3.6h4.6L50.3,16.4z M48.4,13
	c0,0.8-0.5,1.3-1.3,1.3h-1.5v-2.5H47C47.8,11.7,48.4,12.1,48.4,13L48.4,13z"/>
<path class="st0" d="M65.2,14.7c1.6-0.3,2.4-1.2,2.4-2.7c0-2.1-1.6-3.2-4.3-3.2h-7V21H63c3.2,0,4.8-1.1,4.8-3.4
	C67.8,15.9,66.8,14.9,65.2,14.7z M60.5,11.4H62c0.8,0,1.3,0.3,1.3,1.1l0,0c0,0.7-0.5,1.1-1.4,1.1h-1.5v-2.2H60.5z M63.4,17.2
	c0,0.7-0.5,1.1-1.4,1.1h-1.5V16H62C62.9,16,63.4,16.4,63.4,17.2L63.4,17.2z"/>
<path class="st0" d="M127.3,8.5c1,0,1.9,0.8,1.9,1.9s-0.8,1.9-1.9,1.9c-1,0-1.9-0.8-1.9-1.9C125.4,9.3,126.3,8.5,127.3,8.5z
	 M127.3,12c0.8,0,1.5-0.7,1.5-1.6c0-0.9-0.7-1.6-1.5-1.6c-0.9,0-1.5,0.7-1.5,1.6S126.4,12,127.3,12z M126.6,9.3h0.8
	c0.5,0,0.8,0.2,0.8,0.6c0,0.4-0.2,0.6-0.6,0.6l0.6,1h-0.4l-0.6-0.9h-0.4v0.9h-0.3V9.3H126.6z M126.9,10.3h0.3c0.3,0,0.6,0,0.6-0.4
	c0-0.3-0.3-0.3-0.5-0.3h-0.4V10.3z"/>
</svg>
